<?xml version="1.0" standalone="no"?><!DOCTYPE svg PUBLIC "-//W3C//DTD SVG 1.1//EN" "http://www.w3.org/Graphics/SVG/1.1/DTD/svg11.dtd"><svg t="1777044571078" class="icon" viewBox="0 0 1024 1024" version="1.1" xmlns="http://www.w3.org/2000/svg" p-id="10417" xmlns:xlink="http://www.w3.org/1999/xlink" width="64" height="64"><path d="M863.573333 75.580952c30.72 21.942857 38.034286 64.365714 17.066667 95.573334L525.653333 707.047619l-139.459047-97.523809 381.805714-516.876191c21.942857-30.72 64.365714-38.034286 95.573333-17.066667z" fill="#02C3F7" p-id="10418"></path><path d="M496.39619 479.817143l-79.969523 103.862857 127.268571 89.234286 64.365714-107.76381z" fill="#F26871" p-id="10419"></path><path d="M699.245714 209.67619c-4.87619 0-10.24-1.462857-14.628571-4.87619-10.727619-7.801905-13.165714-23.405714-5.36381-34.133333l3.413334-4.388572c7.801905-10.727619 23.405714-13.165714 34.133333-5.363809s13.165714 23.405714 5.36381 34.133333l-3.413334 4.388571c-4.388571 6.826667-11.702857 10.24-19.504762 10.24z" fill="#2F57B2" p-id="10420"></path><path d="M525.653333 731.428571c-4.87619 0-9.752381-1.462857-14.140952-4.388571l-139.459048-97.52381c-5.36381-3.900952-9.264762-9.752381-10.24-16.091428-0.975238-6.339048 0.487619-13.165714 4.388572-18.529524l251.611428-340.358095c7.801905-10.727619 23.405714-13.165714 34.133334-4.876191s13.165714 23.405714 4.87619 34.133334l-236.495238 319.878095 98.499048 68.754286 341.333333-514.925715c14.140952-20.48 9.264762-47.786667-10.727619-61.927619-20.48-13.653333-47.299048-8.777143-61.927619 11.215238l-16.091429 21.942858c-7.801905 10.727619-23.405714 13.165714-34.133333 4.87619-10.727619-7.801905-13.165714-23.405714-4.87619-34.133333l16.091428-21.942857c29.744762-41.447619 86.308571-51.2 128.731429-22.430477 0 0 0.487619 0 0.487619 0.487619 41.447619 29.744762 51.687619 86.79619 22.918095 129.219048l-354.986667 535.893333c-3.413333 5.36381-9.264762 9.264762-15.603809 10.727619h-4.388572z" fill="#2F57B2" p-id="10421"></path><path d="M262.339048 671.939048c44.373333-69.729524 141.897143-81.92 207.725714-30.72 59.001905 46.32381 70.704762 130.681905 30.232381 194.072381-113.615238 178.468571-307.2 86.308571-367.664762 46.811428-7.801905-4.87619-8.289524-15.11619 0-19.017143 18.041905-8.777143 63.878095-33.158095 78.994286-61.44 30.232381-55.588571 23.405714-86.79619 50.712381-129.706666z" fill="#F5C945" p-id="10422"></path><path d="M317.44 965.485714c-95.573333 0-179.931429-51.2-197.973333-63.390476-11.215238-7.314286-17.554286-19.992381-17.066667-32.670476 0.975238-12.678095 8.289524-23.405714 19.992381-28.769524 33.158095-16.091429 59.977143-36.08381 68.266667-50.712381 13.653333-24.868571 19.017143-44.373333 23.893333-63.390476 5.851429-20.967619 11.702857-42.910476 27.306667-67.779048 24.380952-38.034286 62.902857-63.390476 108.251428-71.192381 47.786667-8.289524 97.03619 4.388571 135.070476 34.133334 67.291429 52.662857 82.895238 152.137143 36.08381 226.255238-39.009524 60.952381-90.209524 98.499048-152.137143 112.152381-17.554286 3.900952-35.108571 5.36381-51.687619 5.363809z m-152.137143-92.647619c52.175238 29.257143 127.268571 53.638095 193.584762 39.497143 48.761905-10.727619 89.721905-40.96 121.417143-90.697143 33.645714-53.150476 22.918095-123.855238-24.868572-161.889524-27.306667-21.455238-62.415238-30.232381-96.548571-24.380952-31.695238 5.36381-58.514286 22.918095-75.580952 49.249524-11.702857 18.529524-16.091429 34.133333-21.455238 54.125714-5.36381 20.48-11.702857 44.373333-28.281905 74.118095-14.140952 25.35619-43.398095 45.83619-68.266667 59.977143z m-21.942857 11.702857z m2.438095-23.405714zM473.322057 484.737219l27.969829-39.945752 139.410285 97.616457-27.969828 39.945752z" fill="#2F57B2" p-id="10423"></path><path d="M306.712381 757.272381h-2.438095c-7.801905-1.462857-13.653333-8.777143-12.190476-16.579048 5.851429-36.08381 28.281905-64.853333 55.100952-69.729523 7.801905-1.462857 15.60381 3.900952 17.066667 11.702857 1.462857 7.801905-3.900952 15.60381-11.702858 17.066666-12.190476 2.438095-27.794286 19.992381-31.695238 45.836191-0.487619 6.339048-6.826667 11.702857-14.140952 11.702857zM397.897143 700.708571c-1.950476 0-3.900952-0.487619-6.339048-1.462857l-0.975238-0.487619c-7.314286-3.413333-10.727619-12.190476-7.314286-19.504762 3.413333-7.314286 12.190476-10.727619 19.504762-7.314285l0.975238 0.487619c7.314286 3.413333 10.727619 12.190476 7.314286 19.504762-2.438095 5.36381-7.801905 8.777143-13.165714 8.777142z" fill="#FFFFFF" p-id="10424"></path><path d="M892.342857 975.238095h-287.695238c-13.653333 0-24.380952-10.727619-24.380952-24.380952s10.727619-24.380952 24.380952-24.380953h287.695238c13.653333 0 24.380952 10.727619 24.380953 24.380953s-10.727619 24.380952-24.380953 24.380952z" fill="#2F57B2" p-id="10425"></path></svg>